<svg xmlns="http://www.w3.org/2000/svg" width="206" height="75" viewBox="0 0 206 75" fill="none"><g clip-path="url(#clip0_101_2)"><path d="M175.943 6.55536C173.543 6.55536 171.2 6.84162 168.971 7.41414C171.4 9.84734 173.314 12.8244 174.486 16.3454C178.057 27.0229 173.629 38.7882 164.114 44.313C164.371 47.4618 164.029 50.7252 162.971 53.8741C162.257 55.9924 161.286 57.9103 160.086 59.6565C164.629 62.6622 170.086 64.4084 175.943 64.4084C191.886 64.4084 204.8 51.4695 204.8 35.4962C204.8 19.5229 191.886 6.55536 175.943 6.55536Z" fill="#25A2C8"></path><path d="M150.2 48.5496C136.543 51.3263 123.057 52.2424 107.943 52.2424C108 52.2424 108.057 52.2424 108.114 52.2424H107.8C107.857 52.2424 107.914 52.2424 107.971 52.2424C89.8571 52.2424 74.1143 50.9256 57.5714 46.6603C57.1714 46.5458 56.7714 46.4313 56.3714 46.3168C52.8857 54.9046 45.4286 61.4313 36.2571 63.6069C42.6286 69.3321 52.1143 71.5076 61.4286 69.4179C74.8571 66.3836 85.2571 66.1832 96.4286 66.1832H96.4571C107.629 66.2118 118.029 66.3836 131.457 69.4179C142.686 71.9657 154.143 68.2729 160.143 59.6279C155.914 56.8798 152.486 53.0725 150.2 48.5496Z" fill="#B0CF4C"></path><path d="M164.143 44.313C162.371 45.3435 160.429 46.1451 158.314 46.6889C155.6 47.4046 152.886 48.0057 150.2 48.5496C152.486 53.0439 155.914 56.8798 160.114 59.6279C161.314 57.8817 162.286 55.9638 163 53.8454C164.057 50.7252 164.4 47.4618 164.143 44.313Z" fill="#2C9691"></path><path d="M54.8857 21.4981C68.2857 18.8359 81.5714 17.9485 96.4286 17.9485C96.3714 17.9485 96.3143 17.9485 96.2571 17.9485H96.5714C96.5143 17.9485 96.4571 17.9485 96.4 17.9485C114.514 17.9485 130.257 19.2653 146.8 23.5305C147.657 23.7595 148.486 24.0172 149.314 24.3321C152.8 16.0019 160.086 9.64694 168.971 7.41412C162.629 1.08778 152.686 -1.4313 142.943 0.801523C129.514 3.83587 119.114 4.03626 107.943 4.03626H107.914C96.7429 4.00763 86.3428 3.83587 72.9143 0.801523C61.6857 -1.74619 50.2 1.94656 44.2286 10.5916C48.6857 13.1966 52.3714 16.9752 54.8857 21.4981Z" fill="#61BEAD"></path><path d="M149.314 24.3321C157.943 27.624 163.4 35.6107 164.143 44.313C173.629 38.8168 178.086 27.0229 174.514 16.3454C173.343 12.8244 171.429 9.84733 169 7.41412C160.057 9.61832 152.8 15.9733 149.314 24.3321Z" fill="#2C9691"></path><path d="M149.314 24.3321C148.514 24.0172 147.686 23.7596 146.8 23.5305C130.286 19.2653 114.543 17.9485 96.4286 17.9485C81.5715 17.9485 68.2857 18.8359 54.8857 21.4981C56.7143 24.7901 57.9143 28.4828 58.3143 32.4046C57.4 33.4351 56.9143 35.1527 56.9143 36.1832C56.9143 37.958 57.0286 39.1603 58 40.6775C57.5143 42.3664 57.0857 44.0554 56.3715 46.3168C56.7715 46.4313 57.1715 46.5458 57.5715 46.6603C74.0857 50.9256 89.8286 52.2138 107.971 52.2424C123.114 52.2424 136.571 51.3264 150.229 48.5496C148.229 44.6279 147.114 40.1909 147.114 35.4676C147.086 31.5172 147.886 27.7672 149.314 24.3321Z" fill="#469C3D"></path><path d="M149.314 24.3321C147.886 27.7672 147.086 31.5458 147.086 35.4962C147.086 40.1908 148.2 44.6565 150.2 48.5782C152.886 48.0343 155.6 47.4046 158.314 46.7176C160.429 46.1737 162.371 45.3721 164.143 44.3416C163.4 35.6107 157.914 27.624 149.314 24.3321Z" fill="#25A2C8"></path><path d="M29.8571 53.8741C26.2857 43.1966 30.7143 31.4313 40.2286 25.9065C39.9714 22.7577 40.3143 19.4943 41.3714 16.3454C42.0857 14.2271 43.0571 12.3092 44.2571 10.563C39.9714 8.01528 34.9429 6.55536 29.6 6.55536C13.6571 6.55536 0.742859 19.4943 0.742859 35.4676C0.742859 51.4409 13.6571 64.3798 29.6 64.3798C31.8857 64.3798 34.1143 64.1222 36.2571 63.6069C33.4 61.0592 31.1714 57.7958 29.8571 53.8741Z" fill="#EC5C28"></path><path d="M56.3429 46.3454C46.9714 43.397 40.9714 35.0382 40.2 25.9065C30.7143 31.4027 26.2572 43.1966 29.8286 53.8741C31.1429 57.7958 33.3715 61.0592 36.2286 63.6355C45.4 61.4599 52.8857 54.9332 56.3429 46.3454Z" fill="#BF4F18"></path><path d="M40.2 25.9065C41.9714 24.876 43.9143 24.0744 46.0286 23.5305C49 22.7576 51.9429 22.0992 54.8571 21.5267C52.3714 17.0038 48.6857 13.2252 44.2286 10.5916C43.0286 12.3092 42.0571 14.2557 41.3428 16.3741C40.3143 19.4943 39.9428 22.7576 40.2 25.9065Z" fill="#BF4F18"></path><path d="M54.8857 21.4981C51.9429 22.0706 49 22.7576 46.0571 23.5019C43.9429 24.0458 42 24.8473 40.2286 25.8778C40.5714 30 41.9714 33.9217 44.2571 37.2996C44.0286 40.5916 46.3143 42.0229 48.4571 41.9656C50.7143 43.855 53.3714 45.3721 56.3714 46.3168C57.1143 44.2843 57.6 42.1088 58 40.6775C57.5429 39.8473 56.9143 38.9313 56.9143 36.6698C56.9143 35.2672 56.9714 34.1221 58.3143 32.4046C57.8571 28.3683 56.5429 24.5038 54.8857 21.4981Z" fill="#EC5C28"></path><path d="M78.9714 28.6259C76.9143 28.6259 75.4286 29.7996 74.5714 31.1164C74.5143 30.6298 74.3429 29.3702 74.0857 28.9695L73.8857 28.9408C73.2572 28.9122 72.5143 28.8836 71.6572 28.8836C70.7429 28.8836 69.7143 28.9122 68.6 28.9695C68.4857 29.4847 68.4286 30 68.4286 30.5439C68.4286 31.0592 68.4857 31.6603 68.6 32.1756H70.6286V44.2843C71.3429 44.3988 72.0572 44.4561 72.7143 44.4561C73.4 44.4561 74.1143 44.3988 74.8 44.2843V36.2691C74.8 33.3779 76 32.3187 77.7714 32.3187C79.4 32.3187 79.9714 33.4924 79.9714 35.6393V44.2843C80.6857 44.3988 81.4 44.4561 82.0571 44.4561C82.7429 44.4561 83.4571 44.3988 84.1429 44.2843V34.4943C84.2286 30.458 82.4571 28.6259 78.9714 28.6259Z" fill="white"></path><path d="M60.4857 41.4504C58.3143 41.4504 57.4 39.7614 57.4 36.6698C57.4 33.5782 58.3143 31.8893 60.4857 31.8893C62.7143 31.8893 63.6 33.5782 63.6 36.6698C63.5715 39.7614 62.6857 41.4504 60.4857 41.4504ZM60.4857 28.6259C55.6572 28.6259 53.1429 32.0324 53.1429 36.6985C53.1429 41.3072 55.6572 44.6565 60.4857 44.6565C65.3715 44.6565 67.8572 41.3359 67.8572 36.6985C67.8286 32.0324 65.3715 28.6259 60.4857 28.6259Z" fill="white"></path><path d="M35.4 26.5649C36.0857 26.5649 36.8857 26.5363 37.5714 26.4218C37.6857 25.7347 37.7143 25.0477 37.7143 24.4466C37.7143 23.7595 37.6857 23.1298 37.5714 22.4714C36.8857 22.3569 36.0571 22.2996 35.3714 22.2996C34.7428 22.2996 33.9143 22.3569 33.2286 22.4714C33.1143 23.1584 33.0571 23.8454 33.0571 24.4466C33.0571 25.105 33.1143 25.7634 33.2286 26.4218C33.9143 26.5363 34.7714 26.5649 35.4 26.5649Z" fill="white"></path><path d="M48.3143 41.2786C46.0285 41.2786 44.6 39.8759 44.6 36.6985C44.6 33.75 45.8285 32.0897 48.2857 32.0897H48.9143V34.0649C49.4285 34.1794 50.0285 34.2366 50.5428 34.2366C51.0857 34.2366 51.6 34.1794 52.1142 34.0649C52.1428 33.3779 52.1714 32.605 52.1714 31.8034C52.1714 31.0019 52.1428 30.2004 52.1142 29.4275C50.5428 28.8263 49.4571 28.6546 47.7428 28.6546C42.9143 28.6546 40.3428 32.0897 40.3428 36.6698C40.3428 41.3931 42.9428 44.6565 47.9143 44.6565C49.4285 44.6565 50.7143 44.542 52.2857 43.9122C52.2857 42.4809 51.9428 41.479 51.4571 40.6775C50.1428 41.1927 49.6285 41.2786 48.3143 41.2786Z" fill="white"></path><path d="M31.6857 30.5725C31.6857 31.0878 31.7429 31.6889 31.8572 32.2042H33.8286V44.313C34.5429 44.4275 35.2286 44.4847 35.8572 44.4847C36.5429 44.4847 37.2286 44.4275 37.9143 44.313V28.9981H31.8286C31.7714 29.4847 31.6857 30.0286 31.6857 30.5725Z" fill="white"></path><path d="M30.6285 41.1069C29.0857 41.1069 28.7428 40.3626 28.7428 38.2156V22.6431C28.0285 22.5286 27.3428 22.4714 26.6857 22.4714C26 22.4714 25.2857 22.5286 24.6 22.6431V39.1031C24.6 42.8817 26.5714 44.4561 29.6285 44.4561C30.3714 44.4561 31.3714 44.3989 32 44.1985C32.0285 44.0553 32.0571 43.9122 32.0571 43.7405V43.3397C32.0571 42.5668 31.9428 41.7653 31.7428 40.9637C31.3428 41.0782 30.9714 41.1069 30.6285 41.1069Z" fill="white"></path><path d="M18.9143 26.5649C19.6 26.5649 20.4 26.5363 21.0857 26.4218C21.2 25.7347 21.2286 25.0477 21.2286 24.4466C21.2286 23.7595 21.2 23.1298 21.0857 22.4714C20.4 22.3569 19.5714 22.2996 18.8857 22.2996C18.2571 22.2996 17.4286 22.3569 16.7428 22.4714C16.6286 23.1584 16.5714 23.8454 16.5714 24.4466C16.5714 25.105 16.6286 25.7634 16.7428 26.4218C17.4571 26.5363 18.3143 26.5649 18.9143 26.5649Z" fill="white"></path><path d="M15.2286 30.5725C15.2286 31.0878 15.2857 31.6889 15.4 32.2042H17.3714V44.313C18.0857 44.4275 18.7714 44.4847 19.4 44.4847C20.0857 44.4847 20.7714 44.4275 21.4571 44.313V28.9981H15.4C15.2857 29.4847 15.2286 30.0286 15.2286 30.5725Z" fill="white"></path><path d="M9.25715 31.6603L7.48572 30.9733C6.14286 30.458 5.02858 30 5.02858 28.4542C5.02858 26.6221 6.40001 26.1355 7.91429 26.1355C8.82858 26.1355 9.54286 26.1927 10.2 26.3359V28.2824C10.7143 28.3969 11.3143 28.4542 11.8286 28.4542C12.3714 28.4542 12.8857 28.3969 13.4 28.2824C13.4286 27.5954 13.4571 26.8225 13.4571 26.021C13.4571 25.2195 13.4286 24.4179 13.4 23.645C11.4857 22.958 9.82858 22.6145 7.80001 22.6145C3.48572 22.6431 0.571435 24.7901 0.571435 28.855C0.571435 32.0611 2.17144 33.4065 4.91429 34.4656L6.71429 35.1527C8.22858 35.7252 9.54286 36.2977 9.54286 38.1298C9.54286 40.0191 8.02858 40.9351 5.54286 40.9351C3.88572 40.9351 2.51429 40.6202 0.85715 39.9332C0.400007 41.2214 0.0857212 42.4523 -0.0285645 43.5973C1.91429 44.3989 3.60001 44.6851 5.97143 44.6851C10.9714 44.6851 14.1714 42.0801 14.1714 37.9008C14.2 34.0935 12.4286 32.8626 9.25715 31.6603Z" fill="white"></path><path d="M202.371 35.0095L200.686 34.4943C199.686 34.208 199.143 33.9217 199.143 33.063C199.143 32.1469 199.943 31.7748 201.257 31.7748C202.514 31.7748 203.686 32.1183 204.629 32.5191C205.057 31.6889 205.4 30.5153 205.486 29.4847C203.943 28.9122 202.486 28.6546 200.943 28.6546C197.257 28.6546 194.943 30.458 194.943 33.4351C194.943 35.9256 196.229 36.9847 198.457 37.6431L200.286 38.187C201.314 38.4733 201.914 38.8168 201.914 39.7614C201.914 41.021 200.314 41.4217 199.143 41.4217C197.886 41.4217 196.771 41.1641 195.486 40.6488C195 41.6794 194.714 42.7672 194.629 43.855C196.114 44.4275 197.571 44.6851 199.286 44.6851C203.2 44.6851 206 42.624 206 39.5038C206 36.813 204.657 35.6966 202.371 35.0095Z" fill="white"></path><path d="M183.486 35.0095C183.686 33.0057 184.686 31.8321 186.657 31.8321C188.4 31.8321 189.4 33.0916 189.457 35.0095H183.486ZM186.686 28.6546C181.943 28.6546 179.314 32.1756 179.314 36.7557C179.314 39.0458 179.943 41.021 181.2 42.395C182.457 43.8263 184.486 44.6565 187.314 44.6565C189.257 44.6565 190.971 44.3702 192.514 43.7691C192.486 42.5095 192.143 41.3645 191.686 40.563C190.457 41.0496 189 41.3072 187.629 41.3072C185.2 41.3072 183.6 40.3053 183.429 37.9294H193.229C193.314 37.4714 193.371 36.6985 193.371 35.9542C193.4 31.8321 190.943 28.6546 186.686 28.6546Z" fill="white"></path><path d="M172.4 28.6546C170.343 28.6546 168.857 29.8282 168 31.145C167.943 30.6584 167.771 29.3988 167.514 29.0267L167.314 28.9981C166.686 28.9695 165.943 28.9408 165.086 28.9408C164.171 28.9408 163.143 28.9695 162.057 29.0267C161.943 29.542 161.886 30.0572 161.886 30.6011C161.886 31.1164 161.943 31.7175 162.057 32.2328H164.086V44.3416C164.8 44.4561 165.514 44.5134 166.171 44.5134C166.857 44.5134 167.571 44.4561 168.257 44.3416V36.3263C168.257 33.4351 169.457 32.4046 171.2 32.4046C172.829 32.4046 173.371 33.5782 173.371 35.7252V44.3702C174.086 44.4847 174.8 44.542 175.457 44.542C176.143 44.542 176.857 44.4847 177.543 44.3702V34.6088C177.629 30.4866 175.857 28.6546 172.4 28.6546Z" fill="white"></path><path d="M142.057 26.5649C142.743 26.5649 143.543 26.5363 144.2 26.4218C144.314 25.7347 144.343 25.0477 144.343 24.4466C144.343 23.7595 144.314 23.1584 144.2 22.4714C143.514 22.3569 142.686 22.2996 142.029 22.2996C141.4 22.2996 140.571 22.3569 139.914 22.4714C139.8 23.1584 139.743 23.8454 139.743 24.4466C139.743 25.105 139.8 25.7347 139.914 26.4218C140.571 26.5363 141.429 26.5649 142.057 26.5649Z" fill="white"></path><path d="M153.971 41.479C151.829 41.479 150.886 39.7901 150.886 36.7271C150.886 33.6641 151.8 31.9752 153.971 31.9752C156.2 31.9752 157.086 33.6641 157.086 36.7271C157.086 39.7901 156.2 41.479 153.971 41.479ZM153.971 28.6546C149.171 28.6546 146.657 32.0611 146.657 36.6985C146.657 41.3072 149.171 44.6565 153.971 44.6565C158.857 44.6565 161.314 41.3359 161.314 36.6985C161.314 32.0611 158.886 28.6546 153.971 28.6546Z" fill="white"></path><path d="M138.343 30.5439C138.343 31.0592 138.4 31.6603 138.514 32.1756H140.486V44.2844C141.2 44.3989 141.886 44.4561 142.514 44.4561C143.2 44.4561 143.886 44.3989 144.571 44.2844V28.9981H138.486C138.4 29.4847 138.343 30.0286 138.343 30.5439Z" fill="white"></path><path d="M121.429 26.5935C122.114 26.5935 122.914 26.5649 123.571 26.4504C123.686 25.7634 123.714 25.0763 123.714 24.4752C123.714 23.7882 123.686 23.187 123.571 22.5C122.886 22.3855 122.057 22.3282 121.4 22.3282C120.771 22.3282 119.943 22.3855 119.286 22.5C119.171 23.187 119.114 23.874 119.114 24.4752C119.114 25.1336 119.171 25.7634 119.286 26.4504C119.943 26.5649 120.8 26.5935 121.429 26.5935Z" fill="white"></path><path d="M133.8 35.0095L132.114 34.4943C131.114 34.208 130.571 33.9217 130.571 33.063C130.571 32.1469 131.371 31.7748 132.686 31.7748C133.086 31.7748 133.486 31.8034 133.829 31.8893V33.521C134.229 33.6355 134.829 33.6641 135.257 33.6641C135.686 33.6641 136.2 33.6355 136.629 33.521C136.657 32.9198 136.686 32.2614 136.686 31.5744C136.686 30.8588 136.657 30.1431 136.629 29.5134V29.4847C135.086 28.9122 133.914 28.6546 132.371 28.6546C128.686 28.6546 126.371 30.458 126.371 33.4351C126.371 35.9256 127.657 36.9847 129.886 37.6431L131.714 38.187C132.743 38.4733 133.343 38.8168 133.343 39.7614C133.343 41.021 131.743 41.4217 130.571 41.4217C129.314 41.4217 128.2 41.1641 126.914 40.6488C126.429 41.6794 126.143 42.7672 126.057 43.855C127.543 44.4275 129 44.6851 130.714 44.6851C134.686 44.6851 137.429 42.624 137.429 39.5038C137.429 36.813 136.086 35.6966 133.8 35.0095Z" fill="white"></path><path d="M117.743 30.5725C117.743 31.0878 117.8 31.6889 117.914 32.2042H119.886V44.313C120.6 44.4275 121.286 44.4847 121.914 44.4847C122.6 44.4847 123.286 44.4275 123.971 44.313V29.0267H117.886C117.8 29.5134 117.743 30.0573 117.743 30.5725Z" fill="white"></path><path d="M112.886 22.8435C112.143 22.8435 111.457 22.9008 110.857 23.0153L105.829 35.2099L100.971 23.1011C99.8 22.9294 98.3714 22.9008 97.3428 22.9008H96.1714L94.0285 22.9866C93.9143 23.5019 93.8571 24.0172 93.8571 24.5611C93.8571 25.0763 93.9143 25.6775 94.0285 26.1927H96.3143L95.6 44.313C96.2857 44.4275 96.9428 44.4847 97.5428 44.4847C98.1428 44.4847 98.7428 44.4275 99.3714 44.313L99.7714 29.6565L103.8 39.8759C104.371 39.9905 104.857 40.0191 105.371 40.0191C105.971 40.0191 106.543 39.9618 107.114 39.8759L111.429 29.8855L111.971 44.313C112.629 44.4275 113.257 44.4847 113.943 44.4847C114.629 44.4847 115.343 44.4275 116.057 44.313L115.057 23.0439C114.371 22.9294 113.629 22.8435 112.886 22.8435Z" fill="white"></path></g><defs><clipPath id="clip0_101_2"><rect width="206" height="75" fill="white"></rect></clipPath></defs></svg>